# xmcd
#
# Track frame offsets:
#	150
#	12022
#	26307
#	39795
#	51751
#	65578
#	79001
#	90334
#	102549
#	114304
#	127879
#	140050
#	153029
#	165034
#
# Disc length: 2433 seconds
#
# Revision: 1
# Processed by: cddbd v1.5.2PL0 Copyright (c) Steve Scherf et al.
# Submitted via: EasyCDDAExtractor 16.0.6.1
#
DISCID=95097f0e
DTITLE=Janaynna - Janaynna Ao Vivo
DYEAR=2012
DGENRE=Sertanejo
TTITLE0=Faze Igual O Gato
TTITLE1=Perfume
TTITLE2=Você Mente
TTITLE3=Quero Seu Amor
TTITLE4=Que Mané De Principe
TTITLE5=Insensato
TTITLE6=To Querendo Te Amar
TTITLE7=Rascunho De Amor
TTITLE8=Socorro
TTITLE9=Estrelas
TTITLE10=Me Adiciona A Eh
TTITLE11=Pra Não Pensar Em Você
TTITLE12=A Carne e Fraca (Part Jorge e Mateus)
TTITLE13=Em Suas Mãos (Part Marco e Mario)
EXTD=
EXTT0=
EXTT1=
EXTT2=
EXTT3=
EXTT4=
EXTT5=
EXTT6=
EXTT7=
EXTT8=
EXTT9=
EXTT10=
EXTT11=
EXTT12=
EXTT13=
PLAYORDER=
